<?xml version="1.0" standalone="no"?>
<!DOCTYPE svg PUBLIC "-//W3C//DTD SVG 20010904//EN" "http://www.w3.org/TR/2001/REC-SVG-20010904/DTD/svg10.dtd">
<!-- Created using Karbon, part of Calligra: http://www.calligra.org/karbon -->
<svg xmlns="http://www.w3.org/2000/svg" xmlns:xlink="http://www.w3.org/1999/xlink" width="841.891pt" height="595.277pt">
<defs>
  <radialGradient id="gradient0" gradientTransform="" gradientUnits="objectBoundingBox" cx="0.50000000000" cy="0.50000000000" fx="0.25000000000" fy="0.25000000000" r="0.50000000000" spreadMethod="pad">
   <stop stop-color="#ffffff" offset="0.00000000000" stop-opacity="1.00000000000"/>
   <stop stop-color="#00ff00" offset="1.00000000000" stop-opacity="1.00000000000"/>
  </radialGradient>
  <radialGradient id="gradient1" gradientTransform="" gradientUnits="objectBoundingBox" cx="0.50000000000" cy="0.50000000000" fx="0.25000000000" fy="0.25000000000" r="0.50000000000" spreadMethod="pad">
   <stop stop-color="#ffffff" offset="0.00000000000" stop-opacity="1.00000000000"/>
   <stop stop-color="#00ff00" offset="1.00000000000" stop-opacity="1.00000000000"/>
  </radialGradient>
 </defs>
<g id="layer0">
  <rect id="shape0" transform="matrix(1 -0.00737371 0 1 90 205.657)" fill="none" stroke="#000000" stroke-width="1.25000000000" stroke-linecap="square" stroke-linejoin="miter" stroke-miterlimit="2.00000000000" width="680.99999999995pt" height="226.58461428111pt"/>
  <path id="shape1" transform="translate(554.287, 103.638)" fill="url(#gradient0)" fill-rule="evenodd" stroke="#000000" stroke-width="1.25000000000" stroke-linecap="square" stroke-linejoin="miter" stroke-miterlimit="2.00000000000" d="M465.788 41.9209C465.788 18.7686 361.518 1.41767e-15 232.894 0C104.27 -1.41767e-15 1.57519e-14 18.7686 0 41.9209C-1.57519e-14 65.0732 104.27 83.8418 232.894 83.8418C361.518 83.8418 465.788 65.0732 465.788 41.9209"/>
  <path id="shape2" transform="translate(103.125, 514.695)" fill="url(#gradient1)" fill-rule="evenodd" stroke="#000000" stroke-width="1.25000000000" stroke-linecap="square" stroke-linejoin="miter" stroke-miterlimit="2.00000000000" d="M883.437 49.4899C883.437 22.1574 685.673 1.67364e-15 441.718 0C197.764 -1.67364e-15 2.98758e-14 22.1574 0 49.4899C-2.98758e-14 76.8225 197.764 98.9799 441.718 98.9799C685.673 98.9799 883.437 76.8225 883.437 49.4899"/>
  <rect id="shape3" transform="translate(118.475, 378.413)" fill="none" stroke="#000000" stroke-width="1.41732529000" stroke-linecap="square" stroke-linejoin="miter" stroke-miterlimit="2.00000000000" width="333.45621697935pt" height="46.57876539906pt"/>
  <text id="shape0" fill="#000000" font-family="ComicSans" font-size="20.00000000000pt" x="0.00000000000pt" y="14.98437500000pt" transform="translate(362.89, 664.182)"><tspan x="0"  y="18.7305">Cache Server</tspan></text>
  <rect id="shape4" transform="translate(330.709, 640.458)" fill="none" stroke="#000000" stroke-width="1.25000000000" stroke-linecap="square" stroke-linejoin="miter" stroke-miterlimit="2.00000000000" width="172.34143197653pt" height="43.78403947512pt"/>
  <g id="group0" transform="translate(50.8121, 26.0524)" fill="none"/>
  <path id="shape5" transform="translate(636.965, 96.6509)" fill="#fafafa" fill-rule="evenodd" stroke="#000000" stroke-width="1.25000000000" stroke-linecap="square" stroke-linejoin="miter" stroke-miterlimit="2.00000000000" d="M21.1933 55.0896L0 55.0896L30.2762 0L60.5524 55.0896L39.3591 55.0896L39.3591 137.724L21.1933 137.724Z"/>
  <path id="shape6" transform="translate(411.058, 461.25)" fill="#fafafa" fill-rule="evenodd" stroke="#000000" stroke-width="1.25000000000" stroke-linecap="square" stroke-linejoin="miter" stroke-miterlimit="2.00000000000" d="M21.1933 67.0253L0 67.0253L30.2762 0L60.5524 67.0253L39.3591 67.0253L39.3591 167.563L21.1933 167.563Z"/>
  <path id="shape7" transform="translate(640.142, 461.25)" fill="#fafafa" fill-rule="evenodd" stroke="#000000" stroke-width="1.25000000000" stroke-linecap="square" stroke-linejoin="miter" stroke-miterlimit="2.00000000000" d="M21.1933 66.5595L0 66.5595L30.2762 0L60.5524 66.5595L39.3591 66.5595L39.3591 166.399L21.1933 166.399Z"/>
  <rect id="shape8" transform="translate(44.2498, 642.787)" fill="none" stroke="#000000" stroke-width="1.25000000000" stroke-linecap="square" stroke-linejoin="miter" stroke-miterlimit="2.00000000000" width="206.80971837183pt" height="41.61582222817pt"/>
  <path id="shape9" transform="translate(136.875, 451.875)" fill="#fafafa" fill-rule="evenodd" stroke="#000000" stroke-width="1.25000000000" stroke-linecap="square" stroke-linejoin="miter" stroke-miterlimit="2.00000000000" d="M20.6885 64.5L0 64.5L29.555 0L59.11 64.5L38.4215 64.5L38.4215 161.25L20.6885 161.25Z"/>
  <rect id="shape10" transform="translate(586.892, 640.458)" fill="none" stroke="#000000" stroke-width="1.25000000000" stroke-linecap="square" stroke-linejoin="miter" stroke-miterlimit="2.00000000000" width="172.34143197653pt" height="43.78403947512pt"/>
  <rect id="shape11" transform="translate(588.057, 380.781)" fill="none" stroke="#000000" stroke-width="1.25000000000" stroke-linecap="square" stroke-linejoin="miter" stroke-miterlimit="2.00000000000" width="172.34143197653pt" height="43.78403947512pt"/>
  <rect id="shape12" transform="translate(584.564, 268.992)" fill="none" stroke="#000000" stroke-width="1.25000000000" stroke-linecap="square" stroke-linejoin="miter" stroke-miterlimit="2.00000000000" width="172.34143197653pt" height="43.78403947512pt"/>
  <text id="shape13" fill="#000000" font-family="ComicSans" font-size="20.00000000000pt" x="0.00000000000pt" y="14.98437500000pt" transform="translate(614.784, 659.892)"><tspan>Stub Resolver</tspan></text>
 </g><g id="layer1">
  <text id="shape01" fill="#000000" font-family="ComicSans" font-size="20.00000000000pt" x="0.00000000000pt" y="14.98437500000pt" transform="translate(646.224, 289.59)"><tspan>Resolver</tspan></text>
  <text id="shape02" fill="#000000" font-family="ComicSans" font-size="20.00000000000pt" x="0.00000000000pt" y="14.98437500000pt" transform="translate(58.1674, 662.221)"><tspan x="0"  y="18.7305">Authoritative Server</tspan></text>
  <text id="shape03" fill="#000000" font-family="ComicSans" font-size="20.00000000000pt" x="0.00000000000pt" y="15.09375000000pt" transform="translate(705.615, 340.81)"><tspan x="0"  y="18.8672">Cache DB RRsets/view</tspan></text>
  <text id="shape04" fill="#000000" font-family="ComicSans" font-size="20.00000000000pt" x="0.00000000000pt" y="15.09375000000pt" transform="translate(156.24, 162.686)"><tspan x="0"  y="18.8672">Socket I/O Statistics</tspan></text>
  <text id="shape05" fill="#000000" font-family="ComicSans" font-size="20.00000000000pt" x="0.00000000000pt" y="14.98437500000pt" transform="translate(561.218, 55.5326)"><tspan x="0"  y="18.7305">Authoritative Server</tspan></text>
  <text id="shape06" fill="#000000" font-family="ComicSans" font-size="20.00000000000pt" x="0.00000000000pt" y="14.76562500000pt" transform="translate(392.49, 448.096)"><tspan x="0"  y="18.457">Name Server Statistics</tspan></text>
  <text id="shape07" fill="#000000" font-family="ComicSans" font-size="20.00000000000pt" x="0.00000000000pt" y="15.09375000000pt" transform="translate(701.865, 224.56)"><tspan x="0"  y="18.8672">Resolver Statistics/view</tspan></text>
  <text id="shape08" fill="#000000" font-family="ComicSans" font-size="20.00000000000pt" x="0.00000000000pt" y="14.98437500000pt" transform="matrix(0.998624 0 0 1.12727 112.769 225.69)"><tspan x="0"  y="18.7305">named</tspan></text>
  <text id="shape09" fill="#000000" font-family="ComicSans" font-size="20.00000000000pt" x="0.00000000000pt" y="14.76562500000pt" transform="translate(130.108, 340.312)"><tspan x="0"  y="18.457">Zone Mentenance Statistics</tspan></text>
  <text id="shape010" fill="#000000" font-family="ComicSans" font-size="20.00000000000pt" x="0.00000000000pt" y="14.48437500000pt" transform="translate(297.705, 398.413)"><tspan x="0"  y="18.1055">Zone</tspan></text>
  <text id="shape011" fill="#000000" font-family="ComicSans" font-size="20.00000000000pt" x="0.00000000000pt" y="15.09375000000pt" transform="translate(719.586, 132.251)"><tspan x="0"  y="18.8672">Outgoing Queries/view</tspan></text>
  <text id="shape012" fill="#000000" font-family="ComicSans" font-size="20.00000000000pt" x="0.00000000000pt" y="14.76562500000pt" transform="translate(725.408, 532.074)"><tspan x="0"  y="18.457">Incoming Queries</tspan></text>
  <text id="shape013" fill="#000000" font-family="ComicSans" font-size="20.00000000000pt" x="0.00000000000pt" y="14.48437500000pt" transform="translate(723.333, 565.339)"><tspan x="0"  y="18.1055">Incoming Requests</tspan></text>
  <text id="shape14" fill="#000000" font-family="ComicSans" font-size="20.00000000000pt" x="0.00000000000pt" y="14.98437500000pt" transform="translate(645.06, 400.215)"><tspan>Cache</tspan></text>
 </g>
</svg>
